<svg width="24" height="24" viewBox="0 0 24 24" fill="none" xmlns="http://www.w3.org/2000/svg">
<path d="M11.1877 2.36101L4.18772 5.47212C3.46547 5.79313 3 6.50937 3 7.29975V16.7003C3 17.4906 3.46547 18.2069 4.18772 18.5279L11.1877 21.639C11.7049 21.8688 12.2951 21.8688 12.8123 21.639L19.8123 18.5279C20.5345 18.2069 21 17.4906 21 16.7003V7.29975C21 6.50937 20.5345 5.79313 19.8123 5.47212L12.8123 2.36101C12.2951 2.13118 11.7049 2.13118 11.1877 2.36101Z" stroke="#494D52" stroke-width="2"/>
<path d="M10.8077 8.86084L4.95922 6.62918C3.58586 6.10513 2.13536 7.19198 2.25258 8.65725L2.9141 16.9262C2.96772 17.5965 3.35465 18.1951 3.94389 18.5191L9.78291 21.7306C11.1709 22.494 12.8532 21.4176 12.7418 19.8375L12.0897 10.5888C12.035 9.81241 11.5349 9.1383 10.8077 8.86084Z" fill="#485265"/>
<path d="M13.2572 8.99711L19.2572 6.59711C20.5709 6.07162 22 7.03914 22 8.45407V16.2639C22 17.0215 21.572 17.714 20.8944 18.0528L12 22.5V10.8541C12 10.0363 12.4979 9.30084 13.2572 8.99711Z" fill="#AEBEDA"/>
<path d="M11.2385 10.1864L3.5 7L11 2H13L20.5 7L12.7615 10.1864C12.2737 10.3873 11.7263 10.3873 11.2385 10.1864Z" fill="#838CAE"/>
<path d="M11.1877 2.36101L4.18772 5.47212C3.46547 5.79313 3 6.50937 3 7.29975V16.7003C3 17.4906 3.46547 18.2069 4.18772 18.5279L11.1877 21.639C11.7049 21.8688 12.2951 21.8688 12.8123 21.639L19.8123 18.5279C20.5345 18.2069 21 17.4906 21 16.7003V7.29975C21 6.50937 20.5345 5.79313 19.8123 5.47212L12.8123 2.36101C12.2951 2.13118 11.7049 2.13118 11.1877 2.36101Z" stroke="#2F343B" stroke-width="2"/>
</svg>
