<svg width="106" height="25" viewBox="0 0 106 25" fill="none" xmlns="http://www.w3.org/2000/svg">
<path d="M11.1877 3.36101L4.18772 6.47212C3.46547 6.79313 3 7.50937 3 8.29975V17.7003C3 18.4906 3.46547 19.2069 4.18772 19.5279L11.1877 22.639C11.7049 22.8688 12.2951 22.8688 12.8123 22.639L19.8123 19.5279C20.5345 19.2069 21 18.4906 21 17.7003V8.29975C21 7.50937 20.5345 6.79313 19.8123 6.47212L12.8123 3.36101C12.2951 3.13118 11.7049 3.13118 11.1877 3.36101Z" stroke="#494D52" stroke-width="2"/>
<path d="M10.8077 9.86084L4.95922 7.62918C3.58586 7.10513 2.13536 8.19198 2.25258 9.65725L2.9141 17.9262C2.96772 18.5965 3.35465 19.1951 3.94389 19.5191L9.78291 22.7306C11.1709 23.494 12.8532 22.4176 12.7418 20.8375L12.0897 11.5888C12.035 10.8124 11.5349 10.1383 10.8077 9.86084Z" fill="#485265"/>
<path d="M13.2572 9.99684L19.1221 7.65084C20.4358 7.12534 21.8649 8.09286 21.8649 9.50779V17.3192C21.8649 18.0759 21.4377 18.7679 20.7613 19.107L11.9999 23.4997V11.8538C11.9999 11.036 12.4978 10.3006 13.2572 9.99684Z" fill="#AEBEDA"/>
<path d="M11.2385 11.1864L3.5 8L11 3H13L20.5 8L12.7615 11.1864C12.2737 11.3873 11.7263 11.3873 11.2385 11.1864Z" fill="#838CAE"/>
<path d="M11.1877 3.36101L4.18772 6.47212C3.46547 6.79313 3 7.50937 3 8.29975V17.7003C3 18.4906 3.46547 19.2069 4.18772 19.5279L11.1877 22.639C11.7049 22.8688 12.2951 22.8688 12.8123 22.639L19.8123 19.5279C20.5345 19.2069 21 18.4906 21 17.7003V8.29975C21 7.50937 20.5345 6.79313 19.8123 6.47212L12.8123 3.36101C12.2951 3.13118 11.7049 3.13118 11.1877 3.36101Z" stroke="#2F343B" stroke-width="2"/>
<path d="M31.3716 18C30.6463 18 30.097 17.8133 29.7236 17.44C29.361 17.0667 29.1796 16.5173 29.1796 15.792V11.36H27.5476V9.44H29.1796V7.232L31.6756 6.752V9.44H33.8356V11.36H31.6756V15.088C31.6756 15.3547 31.7396 15.5467 31.8676 15.664C31.9956 15.7707 32.1876 15.824 32.4436 15.824H33.8356V18H31.3716ZM38.5361 18.144C37.3521 18.144 36.4348 17.8347 35.7841 17.216C35.1441 16.5867 34.8241 15.568 34.8241 14.16V9.44H37.3681V13.696C37.3681 14.528 37.5281 15.1573 37.8481 15.584C38.1681 16 38.6855 16.208 39.4001 16.208C40.1468 16.208 40.7441 15.9787 41.1921 15.52C41.6508 15.0507 41.8801 14.4427 41.8801 13.696V9.44H44.4241V18H41.9761L41.8801 16.432H41.7681C41.5015 16.9547 41.0748 17.3707 40.4881 17.68C39.9121 17.9893 39.2615 18.144 38.5361 18.144ZM45.9529 9.44H48.4169L48.4969 11.104H48.5609C48.8489 10.5387 49.2809 10.096 49.8569 9.776C50.4435 9.456 51.1049 9.296 51.8409 9.296C53.0142 9.296 53.9262 9.61067 54.5769 10.24C55.2275 10.8587 55.5529 11.8773 55.5529 13.296V18H53.0089V13.744C53.0089 12.9013 52.8489 12.272 52.5289 11.856C52.2089 11.44 51.6915 11.232 50.9769 11.232C50.2409 11.232 49.6435 11.4667 49.1849 11.936C48.7262 12.3947 48.4969 12.9973 48.4969 13.744V18H45.9529V9.44ZM61.6398 20.832C60.2424 20.832 59.1224 20.592 58.2798 20.112C57.4371 19.6427 56.9678 18.992 56.8717 18.16H59.5278C59.6984 18.8107 60.4451 19.136 61.7678 19.136C62.5998 19.136 63.2184 18.992 63.6238 18.704C64.0291 18.416 64.2318 17.9733 64.2318 17.376V16.048H64.1838C63.8958 16.5707 63.4584 16.976 62.8718 17.264C62.2851 17.5413 61.6024 17.68 60.8238 17.68C59.9811 17.68 59.2451 17.5093 58.6158 17.168C57.9864 16.816 57.4958 16.3253 57.1438 15.696C56.8024 15.0667 56.6318 14.3307 56.6318 13.488C56.6318 12.656 56.8078 11.9253 57.1598 11.296C57.5118 10.656 58.0078 10.16 58.6478 9.808C59.2984 9.456 60.0398 9.28 60.8718 9.28C61.6398 9.28 62.3118 9.424 62.8878 9.712C63.4744 9.98933 63.9278 10.3733 64.2478 10.864H64.2798L64.3598 9.44H66.7598V17.024C66.7598 18.304 66.3384 19.2587 65.4958 19.888C64.6531 20.5173 63.3678 20.832 61.6398 20.832ZM61.6878 15.824C62.1678 15.824 62.5998 15.728 62.9838 15.536C63.3784 15.344 63.6824 15.0827 63.8958 14.752C64.1198 14.4107 64.2318 14.0373 64.2318 13.632V13.376C64.2318 12.9493 64.1198 12.5653 63.8958 12.224C63.6824 11.8827 63.3838 11.616 62.9998 11.424C62.6158 11.2213 62.1838 11.12 61.7038 11.12C60.9358 11.12 60.3224 11.3333 59.8638 11.76C59.4158 12.1867 59.1918 12.7627 59.1918 13.488C59.1918 14.224 59.4104 14.8 59.8478 15.216C60.2958 15.6213 60.9091 15.824 61.6878 15.824ZM72.4083 18.16C70.9683 18.16 69.8536 17.9093 69.0643 17.408C68.2749 16.896 67.8483 16.176 67.7843 15.248H70.2963C70.3389 15.696 70.5469 16.0373 70.9203 16.272C71.2936 16.496 71.8216 16.608 72.5043 16.608C73.1336 16.608 73.6083 16.528 73.9283 16.368C74.2589 16.1973 74.4243 15.952 74.4243 15.632C74.4243 15.3867 74.3603 15.2 74.2323 15.072C74.1043 14.944 73.8963 14.848 73.6083 14.784C73.3203 14.72 72.8669 14.6613 72.2483 14.608C71.2029 14.512 70.3816 14.3733 69.7843 14.192C69.1869 14 68.7496 13.7333 68.4723 13.392C68.2056 13.0507 68.0723 12.592 68.0723 12.016C68.0723 11.184 68.4563 10.5227 69.2243 10.032C69.9923 9.53067 71.0589 9.28 72.4243 9.28C73.6829 9.28 74.6856 9.52 75.4323 10C76.1789 10.48 76.6003 11.168 76.6962 12.064H74.2643C74.2109 11.648 74.0189 11.3387 73.6883 11.136C73.3576 10.9333 72.9149 10.832 72.3602 10.832C71.8056 10.832 71.3683 10.9173 71.0483 11.088C70.7283 11.248 70.5683 11.488 70.5683 11.808C70.5683 12.0213 70.6376 12.1867 70.7763 12.304C70.9256 12.4213 71.1496 12.512 71.4483 12.576C71.7576 12.6293 72.2056 12.6827 72.7923 12.736C73.8589 12.832 74.6856 12.9707 75.2723 13.152C75.8589 13.3333 76.2856 13.6 76.5523 13.952C76.8189 14.304 76.9523 14.7893 76.9523 15.408C76.9523 16.2827 76.5629 16.96 75.7843 17.44C75.0056 17.92 73.8803 18.16 72.4083 18.16ZM81.1685 18C80.4432 18 79.8938 17.8133 79.5205 17.44C79.1578 17.0667 78.9765 16.5173 78.9765 15.792V11.36H77.3445V9.44H78.9765V7.232L81.4725 6.752V9.44H83.6325V11.36H81.4725V15.088C81.4725 15.3547 81.5365 15.5467 81.6645 15.664C81.7925 15.7707 81.9845 15.824 82.2405 15.824H83.6325V18H81.1685ZM89.4095 18.144C88.3428 18.144 87.4202 17.9627 86.6415 17.6C85.8735 17.2373 85.2815 16.7307 84.8655 16.08C84.4602 15.4187 84.2575 14.6507 84.2575 13.776C84.2575 12.848 84.4655 12.048 84.8815 11.376C85.3082 10.704 85.9108 10.192 86.6895 9.84C87.4682 9.47733 88.3802 9.296 89.4255 9.296C90.5028 9.296 91.4255 9.48267 92.1935 9.856C92.9615 10.2187 93.5428 10.7413 93.9375 11.424C94.3322 12.096 94.5295 12.8907 94.5295 13.808C94.5295 14.0213 94.5242 14.1813 94.5135 14.288H87.0255C86.9828 14.96 87.1855 15.472 87.6335 15.824C88.0815 16.176 88.7055 16.352 89.5055 16.352C90.0922 16.352 90.5935 16.2507 91.0095 16.048C91.4362 15.8453 91.7082 15.5733 91.8255 15.232H94.4335C94.2415 16.1493 93.6922 16.864 92.7855 17.376C91.8788 17.888 90.7535 18.144 89.4095 18.144ZM91.8575 12.832C91.7935 12.2453 91.5482 11.7973 91.1215 11.488C90.7055 11.1787 90.1295 11.024 89.3935 11.024C88.6682 11.024 88.0868 11.184 87.6495 11.504C87.2228 11.824 86.9668 12.2667 86.8815 12.832H91.8575ZM95.6091 9.44H98.0731L98.1531 11.104H98.2171C98.5051 10.5387 98.9371 10.096 99.5131 9.776C100.1 9.456 100.761 9.296 101.497 9.296C102.67 9.296 103.582 9.61067 104.233 10.24C104.884 10.8587 105.209 11.8773 105.209 13.296V18H102.665V13.744C102.665 12.9013 102.505 12.272 102.185 11.856C101.865 11.44 101.348 11.232 100.633 11.232C99.8971 11.232 99.2998 11.4667 98.8411 11.936C98.3825 12.3947 98.1531 12.9973 98.1531 13.744V18H95.6091V9.44Z" fill="#2F343B"/>
</svg>
